<?xml version="1.0" encoding="UTF-8" standalone="no"?> <svg xmlns="http://www.w3.org/2000/svg" version="1.0" width="512.000000pt" height="512.000000pt" viewBox="0 0 512.000000 512.000000" preserveAspectRatio="xMidYMid meet"><g transform="translate(0.000000,512.000000) scale(0.100000,-0.100000)" fill="#000000" stroke="none"><path d="M3335 3935 c-167 -37 -394 -155 -572 -298 l-63 -50 0 -143 0 -143 28 -14 c15 -8 65 -17 112 -20 118 -9 190 -37 310 -123 188 -134 338 -154 517 -70 184 88 289 288 255 489 -46 274 -300 435 -587 372z"></path><path d="M1965 3890 c-259 -16 -539 -31 -623 -35 l-153 -8 3 -100 3 -101 78 -13 c152 -25 258 -95 322 -213 l30 -55 3 -879 c3 -977 4 -956 -61 -1021 -40 -40 -130 -70 -254 -87 l-93 -12 0 -98 0 -98 915 0 915 0 0 99 0 98 -117 18 c-65 9 -148 24 -185 32 -114 25 -187 90 -207 185 -8 33 -11 417 -11 1162 l0 1113 -23 21 c-13 12 -34 21 -48 21 -13 -1 -235 -14 -494 -29z"></path></g></svg> 